PathFileType	4	(X/Y/Z)	./resultDataOpenSim/trcMotMarkerGrf/sub09/qtm-04-08.trc
DataRate	CameraRate	NumFrames	NumMarkers	Units	OrigDataRate	OrigDataStartFrame	OrigNumFrames
250.000000	250.000000	15	24	m	250.000000	1	498
Frame#	Time	L.Toe.Tip			R.Toe.Tip			L.Ankle.Lat			R.Ankle.Lat			L.Ankle.Med			R.Ankle.Med			L.Heel			R.Heel			L.Knee.Lat			R.Knee.Lat			L.Knee.Med			R.Knee.Med			L.Thigh.Upper			R.Thigh.Upper			L.ASIS			R.ASIS			V.Sacral			L.Acromium			R.Acromium			C7			L.Elbow			R.Elbow			L.Wrist.Lat			R.Wrist.Lat
		X1	Y1	Z1	X2	Y2	Z2	X3	Y3	Z3	X4	Y4	Z4	X5	Y5	Z5	X6	Y6	Z6	X7	Y7	Z7	X8	Y8	Z8	X9	Y9	Z9	X10	Y10	Z10	X11	Y11	Z11	X12	Y12	Z12	X13	Y13	Z13	X14	Y14	Z14	X15	Y15	Z15	X16	Y16	Z16	X17	Y17	Z17	X18	Y18	Z18	X19	Y19	Z19	X20	Y20	Z20	X21	Y21	Z21	X22	Y22	Z22	X23	Y23	Z23	X24	Y24	Z24

1	0	-1.5033709	0.0364278	-0.021166488	-0.88228283	0.1061498	0.1018667	-1.6523669	0.081938346	-0.049417871	-1.0310003	0.07134207	0.11927251	-1.6239711	0.094925448	0.04335006	-1.0221567	0.11432624	0.030522682	NaN	NaN	NaN	-1.0757096	0.029301877	0.058776604	-1.4936147	0.46875032	-0.11050756	-1.1526226	0.51232968	0.17362657	-1.4908168	0.46883911	0.015663126	-1.1406237	0.49883407	0.046791908	-1.3819882	0.87355296	-0.15289297	-1.3486418	0.86671142	0.21573015	-1.2766787	0.94676335	-0.10293419	-1.266315	0.95153866	0.13828907	-1.4367599	1.0101656	0.032896402	-1.2423073	1.3988258	-0.14053994	-1.2723355	1.4070679	0.18712344	-1.3214965	1.4589232	0.01896944	-1.3370234	1.0341773	-0.22476794	-1.4515081	1.10073	0.26829265	-1.0823746	0.93831752	-0.18733506	-1.3994934	0.83681984	0.29822573
2	0.004	-1.5033225	0.036409996	-0.021195503	-0.86819038	0.11021405	0.1027132	-1.651923	0.082793126	-0.049567591	-1.0163338	0.072170969	0.11980225	-1.6232985	0.095628144	0.043201768	-1.008312	0.1154504	0.03116493	NaN	NaN	NaN	-1.0594449	0.029356662	0.059559928	-1.4901237	0.46858671	-0.11062479	-1.1468171	0.51092427	0.17361973	-1.4873131	0.46871566	0.015650983	-1.1349751	0.49724358	0.04671402	-1.3762322	0.87244237	-0.15273946	-1.3427207	0.86507644	0.21587253	-1.2707276	0.94548221	-0.10289103	-1.2602113	0.95014124	0.13845942	-1.4309042	1.0083746	0.033079956	-1.2362311	1.3975886	-0.14009831	-1.2667444	1.4056038	0.18753934	-1.3151381	1.4577705	0.020907608	-1.3298857	1.0326338	-0.22452817	-1.4455841	1.0993921	0.26845387	-1.0746493	0.93855843	-0.18677433	-1.3942224	0.8351847	0.29844029
3	0.008	-1.5032704	0.036391294	-0.021231347	-0.85438957	0.11420624	0.10349652	-1.6514631	0.083667085	-0.049746597	-1.0015385	0.073208101	0.12046345	-1.6225855	0.096352806	0.04299809	-0.99466123	0.11657605	0.031766518	NaN	NaN	NaN	-1.0437954	0.029321758	0.060646627	-1.4865767	0.46837899	-0.11072551	-1.1408027	0.50957199	0.17368652	-1.4837631	0.46856751	0.015614061	-1.1292864	0.4956618	0.046667319	-1.3704571	0.87132073	-0.15255039	-1.3365722	0.86347202	0.21603912	-1.2647472	0.94418103	-0.10285571	-1.2540675	0.94875939	0.13862567	-1.425056	1.0068083	0.033249027	-1.2301357	1.3963451	-0.13963695	-1.2610807	1.4041349	0.18796032	-1.3088033	1.4566258	0.02271176	-1.3227528	1.0311067	-0.22427218	-1.4398085	1.0979586	0.2684905	-1.0669335	0.93876485	-0.18619928	-1.3891864	0.83353029	0.29863986
4	0.012	-1.5032105	0.036372968	-0.021276099	-0.8410482	0.11805896	0.10421034	-1.6509738	0.084591163	-0.049977057	-0.98654711	0.074576393	0.12132047	-1.6218251	0.097119958	0.042720084	-0.98134728	0.11770919	0.032319075	NaN	NaN	NaN	-1.0289284	0.029289936	0.061914471	-1.4829253	0.46811541	-0.11082179	-1.1345174	0.50827651	0.17385469	-1.4801671	0.46838081	0.01556061	-1.1235383	0.49408568	0.046669666	-1.3646473	0.87018791	-0.1523147	-1.3301336	0.86189799	0.21622937	-1.2587102	0.94286249	-0.10282499	-1.2478391	0.94739068	0.13879299	-1.4192633	1.005439	0.033428805	-1.224009	1.3950974	-0.13915749	-1.2553193	1.4026583	0.18839045	-1.3025745	1.4554617	0.024090638	-1.3156173	1.029615	-0.22400828	-1.4342006	1.0963344	0.26830454	-1.0592353	0.93890133	-0.18561024	-1.3843203	0.83186153	0.29881392
5	0.016	-1.5031408	0.036356575	-0.021328969	-0.82823839	0.12170048	0.10488698	-1.650444	0.085574338	-0.050275408	-0.97168112	0.076177765	0.122236	-1.6210371	0.097934093	0.042381929	-0.96848034	0.11884476	0.032832096	NaN	NaN	NaN	-1.0147391	0.029387818	0.063041978	-1.4791429	0.46781073	-0.11093185	-1.1279659	0.50704151	0.17413065	-1.4765756	0.46814061	0.015526869	-1.1177449	0.49252089	0.046724797	-1.3588061	0.86905456	-0.15203994	-1.323472	0.86035013	0.2164363	-1.2526146	0.94154843	-0.10279321	-1.2415123	0.94603628	0.13896855	-1.4134936	1.004089	0.03368492	-1.2178515	1.3938594	-0.1386711	-1.2494838	1.4011857	0.18883137	-1.2964936	1.4542563	0.024927087	-1.3084824	1.0281697	-0.22374703	-1.4286453	1.0945338	0.26792521	-1.0515743	0.93894452	-0.18501384	-1.3793241	0.83022005	0.29896822
6	0.02	-1.5030609	0.036342241	-0.021389212	-0.81598998	0.12507949	0.10552552	-1.6498629	0.086604001	-0.050658827	-0.95756828	0.077725781	0.12291845	-1.620235	0.098790775	0.041995412	-0.95611997	0.11996524	0.033307868	NaN	NaN	NaN	-1.0011511	0.029619403	0.06386402	-1.4752101	0.46748833	-0.11106073	-1.1210267	0.50592216	0.17455847	-1.4729838	0.46783432	0.01553008	-1.1119105	0.49100116	0.046833422	-1.352936	0.86793353	-0.15173525	-1.3166857	0.85883089	0.21665924	-1.2464762	0.94025162	-0.10276224	-1.2351025	0.94470738	0.13915093	-1.4075814	1.0026826	0.034074585	-1.2116476	1.3926474	-0.13817957	-1.2436055	1.399736	0.18928224	-1.2904979	1.4530208	0.025422475	-1.3013504	1.0267697	-0.22346109	-1.4230017	1.0927079	0.26751589	-1.0439642	0.93889345	-0.18440943	-1.3739633	0.82864662	0.29911986
7	0.024	-1.5029707	0.036330656	-0.021456322	-0.8043402	0.12817724	0.10607636	-1.649231	0.087679583	-0.051131469	-0.94460676	0.078969991	0.12321133	-1.6194193	0.099696364	0.041556473	-0.94428127	0.12105014	0.033735871	NaN	NaN	NaN	-0.98818831	0.02990934	0.06437527	-1.4711041	0.46716624	-0.11120578	-1.1135346	0.50497959	0.17519605	-1.4692707	0.46747666	0.015538817	-1.1060037	0.48957793	0.046997843	-1.3470304	0.86683388	-0.15140791	-1.3098579	0.85734192	0.21689853	-1.2403132	0.93897534	-0.10273561	-1.2286429	0.94341782	0.13933614	-1.4014351	1.0012984	0.034563365	-1.2053718	1.3914726	-0.13768063	-1.2377075	1.3983211	0.18974065	-1.2845062	1.4517802	0.025831611	-1.2942208	1.0254146	-0.22310633	-1.4172205	1.0909893	0.26721234	-1.0364215	0.93876201	-0.183794	-1.3682298	0.82714997	0.29928153
8	0.028	-1.5028708	0.03632411	-0.021530164	-0.79332937	0.13097703	0.1065116	-1.6485634	0.088813391	-0.051672409	-0.93275748	0.079823689	0.12321971	-1.618593	0.10066521	0.041063449	-0.93297858	0.12207155	0.034101288	NaN	NaN	NaN	-0.975921	0.030180771	0.064592021	-1.4668067	0.46684325	-0.11135446	-1.105586	0.50419741	0.17601598	-1.4652924	0.46710254	0.015506414	-1.0999622	0.48829531	0.047217158	-1.3410766	0.86575617	-0.15106367	-1.3030201	0.85588271	0.21715633	-1.2341228	0.93772759	-0.10270806	-1.2221732	0.94217703	0.13952561	-1.3951522	0.99998841	0.035039428	-1.199019	1.3903377	-0.13717416	-1.2317939	1.3969427	0.19020674	-1.278481	1.4505526	0.026281779	-1.2870966	1.0241062	-0.22268452	-1.4113302	1.0893875	0.26703142	-1.0289677	0.93856446	-0.18317142	-1.3622455	0.82571523	0.29945724
9	0.032	-1.5027617	0.036324376	-0.021610956	-0.78298403	0.13343144	0.10686598	-1.6478723	0.090015531	-0.052258189	-0.92182871	0.080314779	0.12313959	-1.617753	0.10170251	0.040524679	-0.92228415	0.12297878	0.034395786	NaN	NaN	NaN	-0.96441708	0.030372612	0.064526403	-1.4623184	0.46650119	-0.11148977	-1.0975959	0.50347368	0.1768897	-1.4610145	0.46672839	0.015418729	-1.0937147	0.4871802	0.047486908	-1.335063	0.86469685	-0.15070381	-1.2961672	0.85445079	0.217436	-1.2278862	0.93651099	-0.10266417	-1.2157284	0.94097894	0.13972343	-1.3888709	0.99869337	0.035440296	-1.1926211	1.389243	-0.13665732	-1.2258558	1.3955965	0.19068197	-1.27242	1.4493437	0.026790271	-1.27999	1.022843	-0.22224161	-1.4053624	1.0878526	0.26694231	-1.0216031	0.93830882	-0.18254622	-1.3561338	0.82431785	0.29964431
10	0.036	-1.5026429	0.036330723	-0.021698394	-0.77331666	0.13546798	0.10719725	-1.6471486	0.091295254	-0.052887232	-0.91170685	0.0805149	0.12309843	-1.6168891	0.10280259	0.039946871	-0.91228786	0.12370881	0.034622005	NaN	NaN	NaN	-0.95369974	0.030430136	0.064273938	-1.4576575	0.46612449	-0.11161545	-1.0899099	0.50271439	0.17769973	-1.4564951	0.46634046	0.015292076	-1.0872051	0.4862415	0.047802456	-1.3289833	0.86365702	-0.15032827	-1.2892843	0.85304842	0.2177412	-1.2215927	0.93531502	-0.10258561	-1.209322	0.93980803	0.13993652	-1.3826249	0.99737178	0.035801897	-1.1862228	1.3881903	-0.13612235	-1.2198905	1.3942783	0.19116321	-1.2663312	1.4481491	0.027328558	-1.272911	1.0216199	-0.22179299	-1.3993396	1.0863504	0.26691338	-1.0142707	0.93799617	-0.18190628	-1.3499701	0.82293507	0.29983769
11	0.04	-1.5025134	0.036340135	-0.02179152	-0.76432312	0.13701182	0.10753959	-1.6463637	0.092657201	-0.053569194	-0.90236665	0.080498749	0.12312193	-1.6160123	0.10395759	0.039328398	-0.90299652	0.12421538	0.034792791	NaN	NaN	NaN	-0.9437349	0.030313877	0.064028145	-1.4528416	0.46571367	-0.1117501	-1.0825439	0.50191372	0.1784021	-1.4517973	0.46591546	0.015146388	-1.0804011	0.48547229	0.048157291	-1.322836	0.86264037	-0.14994101	-1.282364	0.85168465	0.21808027	-1.2152443	0.93413366	-0.10245858	-1.2029371	0.93866165	0.14017622	-1.3763691	0.99605197	0.036187788	-1.1798376	1.3871799	-0.13556005	-1.2139087	1.392988	0.19164489	-1.2602188	1.4469655	0.027870557	-1.2658579	1.0204357	-0.22130837	-1.3933388	1.0848728	0.266835	-1.0068878	0.93762202	-0.18122805	-1.3437799	0.82155882	0.30003472
12	0.044	-1.5023704	0.036350363	-0.021890938	-0.75598029	0.1380027	0.10789679	-1.6454967	0.094095177	-0.054307308	-0.89380682	0.080309121	0.12315357	-1.6151535	0.10515997	0.038661786	-0.8943526	0.12446892	0.034925719	NaN	NaN	NaN	-0.93447513	0.030031856	0.063922239	-1.4478799	0.46527851	-0.11189448	-1.0753943	0.50111594	0.17898218	-1.4469789	0.46543815	0.014999286	-1.0732904	0.48485649	0.048539835	-1.3166184	0.86164477	-0.14954238	-1.2754207	0.85037301	0.21846644	-1.2088395	0.93297268	-0.10227678	-1.1965401	0.93755167	0.1404545	-1.3700639	0.99475547	0.036618523	-1.1734432	1.3862074	-0.13496945	-1.2079189	1.3917271	0.19212677	-1.2540816	1.4457985	0.028412075	-1.2588288	1.0193	-0.22078016	-1.3875637	1.0834174	0.26641177	-0.99946665	0.93718228	-0.18051324	-1.337558	0.82019509	0.30023509
13	0.048	-1.5022096	0.036363114	-0.022000757	-0.74826381	0.13840948	0.10826027	-1.644555	0.095599516	-0.055102165	-0.88600727	0.079937514	0.12312907	-1.6143271	0.10640412	0.037941725	-0.88632901	0.12443642	0.035031579	NaN	NaN	NaN	-0.92591226	0.029656196	0.063862821	-1.4427859	0.46482341	-0.11203259	-1.0684799	0.50033929	0.17941428	-1.4420712	0.46491201	0.014868248	-1.0658828	0.48437179	0.048933844	-1.3103231	0.86066063	-0.14911967	-1.268478	0.84913448	0.21890755	-1.2023742	0.93183283	-0.10204273	-1.1901066	0.93648465	0.14077858	-1.3636923	0.99348967	0.037064281	-1.1670174	1.385267	-0.13436459	-1.2019152	1.3904931	0.19261602	-1.2479138	1.444659	0.02896241	-1.251831	1.018226	-0.2202415	-1.382256	1.0819767	0.26529148	-0.9921467	0.93667978	-0.17979931	-1.3312879	0.81885216	0.30043929
14	0.052	-1.5020283	0.036382428	-0.022126353	-0.74116458	0.1382325	0.1086202	-1.643557	0.097167456	-0.055956667	-0.87893113	0.079344026	0.12305201	-1.6135129	0.10769327	0.037171376	-0.87894053	0.12408475	0.035110692	NaN	NaN	NaN	-0.91807962	0.029271775	0.063613135	-1.4375798	0.46434378	-0.11215293	-1.0618622	0.49958755	0.17967148	-1.4370454	0.46435507	0.014765502	-1.0582146	0.48399268	0.04932319	-1.3039427	0.85967629	-0.14865633	-1.2615656	0.84798655	0.21939418	-1.1958541	0.93070414	-0.10176604	-1.1836324	0.93545344	0.14114672	-1.3572472	0.99227349	0.037483949	-1.1605532	1.3843565	-0.13376327	-1.1958849	1.3892833	0.19312126	-1.2417105	1.4435521	0.029524558	-1.2448709	1.0172146	-0.21970603	-1.3773798	1.0805484	0.26352787	-0.98503793	0.93612205	-0.17911428	-1.324956	0.81753165	0.30064859
15	0.056	-1.5018292	0.036410151	-0.022270802	-0.73467487	0.13748314	0.10895518	-1.6425046	0.098801804	-0.056868729	-0.87254085	0.078499115	0.12297837	-1.6126694	0.10903915	0.036360575	-0.8721956	0.12340333	0.035165145	NaN	NaN	NaN	-0.91104158	0.028859243	0.063100147	-1.4322689	0.46383265	-0.11224659	-1.0553961	0.49891543	0.17977598	-1.4318606	0.46377154	0.014692367	-1.0503426	0.48370175	0.049699855	-1.2974777	0.85868389	-0.14814942	-1.2547241	0.84693263	0.21990663	-1.1892853	0.92958146	-0.10145659	-1.1771189	0.93445181	0.14155165	-1.3507379	0.99111201	0.037863988	-1.1540517	1.3834774	-0.13317118	-1.1898238	1.3880991	0.19364569	-1.2354779	1.4424658	0.030074302	-1.237948	1.0162533	-0.21914661	-1.3724905	1.0791413	0.26176782	-0.97810464	0.93551194	-0.17844568	-1.3185547	0.81623152	0.30086351
